<?xml version="1.0" standalone="no"?>
<!DOCTYPE svg PUBLIC "-//W3C//DTD SVG 20010904//EN"
 "http://www.w3.org/TR/2001/REC-SVG-20010904/DTD/svg10.dtd">
<svg version="1.0" xmlns="http://www.w3.org/2000/svg"
 width="500.000000pt" height="500.000000pt" viewBox="0 0 500.000000 500.000000"
 preserveAspectRatio="xMidYMid meet">
<metadata>
Created by potrace 1.16, written by Peter Selinger 2001-2019
</metadata>
<g transform="translate(0.000000,500.000000) scale(0.100000,-0.100000)"
fill="#000000" stroke="none">
<path d="M3140 3060 l0 -80 115 0 115 0 0 80 0 80 -115 0 -115 0 0 -80z"/>
<path d="M2170 2545 l0 -545 115 0 115 0 0 360 0 360 24 0 25 0 3 -317 c3
-342 5 -355 56 -385 36 -21 38 -21 480 -19 l382 1 0 24 c0 23 1 22 36 -10 31
-30 42 -34 89 -34 49 0 58 4 90 35 32 32 35 41 35 92 0 51 -3 58 -36 89 -31
30 -42 34 -91 34 -49 0 -59 -4 -89 -34 l-34 -34 0 379 0 378 -112 3 c-62 2
-211 2 -330 0 -183 -2 -218 -5 -218 -17 0 -8 -9 -15 -20 -15 -19 0 -20 7 -20
95 l0 95 -110 0 -110 0 0 -95 c0 -95 0 -95 -25 -95 l-25 0 0 100 0 100 -115 0
-115 0 0 -545z m760 203 c0 -2 -49 -133 -109 -293 -89 -236 -113 -290 -128
-290 -17 0 -18 15 -21 278 l-2 277 30 0 c20 0 30 5 30 15 0 12 18 15 100 15
55 0 100 -1 100 -2z m210 -313 l0 -265 -95 0 c-52 0 -95 3 -95 8 0 11 183 522
187 522 1 0 3 -119 3 -265z"/>
<path d="M1763 2914 c-82 -29 -133 -118 -133 -230 l0 -35 108 3 107 3 6 48 c7
62 32 82 63 51 21 -21 28 -51 24 -108 l-3 -48 -100 -35 c-116 -41 -157 -68
-188 -126 -20 -37 -22 -56 -22 -172 0 -119 2 -134 25 -180 31 -61 75 -89 140
-89 58 0 106 27 131 74 l19 35 0 -53 0 -52 110 0 110 0 0 371 c0 265 -4 383
-12 413 -16 53 -73 109 -133 130 -61 20 -194 20 -252 0z m177 -553 c0 -154
-10 -191 -51 -191 -24 0 -30 5 -40 38 -6 22 -10 78 -8 126 4 87 4 88 41 122
21 19 42 34 48 34 6 0 10 -48 10 -129z"/>
</g>
</svg>
