<?xml version="1.0" standalone="no"?>
<!DOCTYPE svg PUBLIC "-//W3C//DTD SVG 20010904//EN"
 "http://www.w3.org/TR/2001/REC-SVG-20010904/DTD/svg10.dtd">
<svg version="1.0" xmlns="http://www.w3.org/2000/svg"
 width="500.000000pt" height="500.000000pt" viewBox="0 0 500.000000 500.000000"
 preserveAspectRatio="xMidYMid meet">

<g transform="translate(0.000000,500.000000) scale(0.100000,-0.100000)"
fill="#000000" stroke="none">
<path d="M2350 4994 c-276 -21 -583 -93 -816 -193 l-50 -22 1 -82 c0 -45 5
-89 10 -97 5 -8 10 -40 10 -70 0 -30 4 -61 9 -69 6 -9 5 -12 0 -8 -14 8 -11
-77 2 -94 6 -8 10 -58 9 -112 0 -54 2 -100 6 -102 3 -3 5 13 4 35 -1 22 1 37
5 35 9 -5 6 -67 -3 -82 -4 -6 -4 -14 1 -17 4 -2 7 -49 7 -103 -1 -56 3 -104 9
-112 6 -8 11 -39 11 -70 0 -31 4 -62 9 -70 6 -9 5 -12 0 -8 -14 8 -11 -77 2
-94 6 -8 10 -58 9 -112 0 -54 2 -100 6 -102 3 -3 5 13 4 35 -1 22 1 37 5 35 9
-5 6 -67 -3 -82 -4 -6 -4 -14 1 -17 4 -2 7 -50 7 -106 0 -61 4 -105 10 -110 7
-5 10 -52 10 -120 0 -68 3 -115 10 -120 6 -5 10 -49 10 -110 0 -61 4 -105 10
-110 7 -5 10 -52 10 -120 0 -68 3 -115 10 -120 6 -5 11 -46 10 -99 0 -50 2
-88 5 -85 3 3 5 9 6 12 0 4 8 23 17 42 8 19 136 333 284 697 l268 663 235 0
235 0 442 -1097 c243 -603 440 -1100 437 -1105 -3 -4 -124 -8 -269 -8 -241 0
-263 1 -270 18 -3 9 -37 100 -75 202 -38 102 -72 193 -75 203 -7 16 -36 17
-425 17 l-417 0 -80 -217 -80 -218 -79 -5 -79 -5 0 -80 c0 -44 5 -87 10 -95 5
-8 10 -40 10 -70 0 -30 4 -61 9 -69 6 -9 5 -12 0 -8 -14 8 -11 -77 2 -94 6 -8
10 -58 9 -112 0 -54 2 -100 6 -102 3 -3 5 13 4 35 -1 22 1 37 5 35 9 -5 6 -67
-3 -82 -4 -6 -4 -14 1 -17 4 -2 7 -49 7 -103 -1 -56 3 -104 9 -112 6 -8 11
-60 11 -120 0 -58 5 -113 10 -121 5 -8 10 -58 10 -110 0 -52 5 -102 10 -110 5
-8 10 -33 10 -55 0 -37 2 -41 38 -52 21 -7 89 -22 151 -32 688 -120 1400 57
1956 487 104 81 321 291 403 391 159 194 343 521 422 750 259 756 157 1565
-280 2221 -114 171 -332 411 -492 542 -185 150 -444 302 -673 393 -176 70
-422 131 -620 154 -99 12 -361 20 -440 15z m-845 -359 c1 -19 -1 -32 -4 -29
-3 3 -6 21 -6 39 -1 19 1 32 4 29 3 -3 6 -21 6 -39z m20 -240 c1 -19 -1 -32
-4 -29 -3 3 -6 21 -6 39 -1 19 1 32 4 29 3 -3 6 -21 6 -39z m40 -460 c1 -19
-1 -32 -4 -29 -3 3 -6 21 -6 39 -1 19 1 32 4 29 3 -3 6 -21 6 -39z m20 -240
c1 -19 -1 -32 -4 -29 -3 3 -6 21 -6 39 -1 19 1 32 4 29 3 -3 6 -21 6 -39z m40
-460 c1 -19 -1 -32 -4 -29 -3 3 -6 21 -6 39 -1 19 1 32 4 29 3 -3 6 -21 6 -39z
m20 -230 c1 -25 -1 -42 -4 -39 -3 3 -6 25 -6 49 -1 25 1 42 4 39 3 -3 6 -25 6
-49z m20 -230 c1 -19 -1 -32 -4 -29 -3 3 -6 21 -6 39 -1 19 1 32 4 29 3 -3 6
-21 6 -39z m20 -240 c1 -19 -1 -32 -4 -29 -3 3 -6 21 -6 39 -1 19 1 32 4 29 3
-3 6 -21 6 -39z m100 -1160 c1 -19 -1 -32 -4 -29 -3 3 -6 21 -6 39 -1 19 1 32
4 29 3 -3 6 -21 6 -39z m20 -240 c1 -19 -1 -32 -4 -29 -3 3 -6 21 -6 39 -1 19
1 32 4 29 3 -3 6 -21 6 -39z m40 -460 c1 -19 -1 -32 -4 -29 -3 3 -6 21 -6 39
-1 19 1 32 4 29 3 -3 6 -21 6 -39z m20 -230 c1 -25 -1 -42 -4 -39 -3 3 -6 25
-6 49 -1 25 1 42 4 39 3 -3 6 -25 6 -49z m20 -230 c1 -19 -1 -32 -4 -29 -3 3
-6 21 -6 39 -1 19 1 32 4 29 3 -3 6 -21 6 -39z"/>
<path d="M2380 2733 c-62 -164 -115 -304 -118 -310 -3 -10 49 -13 238 -13 189
0 241 3 238 13 -40 113 -233 607 -238 607 -3 0 -57 -134 -120 -297z"/>
</g>
</svg>
