<?xml version="1.0" standalone="yes"?>
<svg xmlns="http://www.w3.org/2000/svg" width="421" height="421">
<path style="fill:#040404; stroke:none;" d="M0 0L0 421L421 421L421 0L0 0z"/>
<path style="fill:#434243; stroke:none;" d="M150 69L157 66C152.773 74.2398 163.747 94.5825 173.015 96.223C179.093 97.299 188.133 90.0252 193.996 88.1983C204.599 84.8947 218.021 85.1073 229 86.1698C240.998 87.3308 254.219 89.733 265 95.2592C274.971 100.37 283.29 108.087 294 111.757C300.182 113.875 305.413 107.851 309.891 109.341C314.185 110.77 312.028 117.217 315.318 119.772C324.398 126.821 334.473 116.027 342 112L344 97L336.901 105.912L323 106L316 98L320 103C311.366 100.74 308.951 92.6058 306 85L308 86L301 81C300.823 76.8383 299.107 74.7108 295 74L288 68L285 66L282 64L279 62L279 60L277 61L277 59L275 60L269 57C263.449 49.608 244.665 48.3262 236 48.0108C209.285 47.0385 167.75 43.872 150 69z"/>
<path style="fill:#040404; stroke:none;" d="M207 51L208 52L207 51M202.667 52.3333L203.333 52.6667L202.667 52.3333M195 54L195 55L200 54L195 54M183 59L183 60L194 56L183 59M181 60L182 61L181 60M162 61L161 63L162 61M157 62L158 63L157 62M280 62L281 63L280 62M159 63L157 66L159 63M286 66L287 67L286 66M289 68L293 72L289 68M296 74L301 79L296 74z"/>
<path style="fill:#434243; stroke:none;" d="M134 81L135 82L134 81z"/>
<path style="fill:#040404; stroke:none;" d="M302 81L306 85L302 81z"/>
<path style="fill:#434243; stroke:none;" d="M132 82L133 83L132 82M130 83L128 86L130 83M130 86L123 102L135 99L135 100C129.832 101.791 124.598 103.988 122 109C130.563 111.04 141.985 115.521 150.851 113.593C158.681 111.889 147.835 101.506 145 100C150.085 91.7072 137.86 82.2877 130 86z"/>
<path style="fill:#040404; stroke:none;" d="M134 85L135 86L134 85M131 86L132 87L131 86z"/>
<path style="fill:#434243; stroke:none;" d="M308 87L311 90L308 87M124 89L123 91L124 89M311 91L313 93L311 91M314 95L316 97L314 95z"/>
<path style="fill:#040404; stroke:none;" d="M320 103L321 104L320 103z"/>
<path style="fill:#434243; stroke:none;" d="M339 115L340 116L339 115M168 118L168 119L173 119L168 118z"/>
<path style="fill:#936652; stroke:none;" d="M146 134C152.157 129.794 157.621 124.958 165 122.927C187.515 116.727 217.75 126.596 241 127.791C259.424 128.737 281.817 127.077 294.393 145.174C299.128 151.987 293.041 171.812 292.514 180C291.073 202.358 296.36 228.167 291.321 250C289.296 258.774 283.476 270.44 274.999 274.539C267.764 278.037 264.685 269.572 259 267.117C252.521 264.319 240.177 265 233 265L233 266L243 267L243 268L212 268.448L182 264L182 263L186 262L186 261L169 260L169 259L172 258L172 257C166.363 259.371 159.936 267.593 153.576 266.885C140.801 265.464 136.43 248.363 134.754 238C132.662 225.071 138.593 210.941 139.83 198C141.645 179.02 139.539 158.644 143 140L142 140L130.174 185L126 221C123.074 214.068 123.609 205.474 115 203L114 211C121.693 212.815 122.848 230.845 123 238L118 232L117 232C118.97 236.96 120.926 239.987 126 242L126 238L127 238L127 249L128 249L128 247L129 247L128 252C131.085 252 129.45 254.558 129 257L130 257L130 255C137.524 271.974 146.504 286.725 160.039 299.91C168.167 307.829 177.27 315.861 188 319.934C226.99 334.736 270.497 309.31 290.127 275C302.586 253.224 302.149 231.09 304.086 207C305.887 184.593 306.069 146.373 285.999 131.613C269.754 119.666 241.894 125.448 223 124.985C196.743 124.342 165.029 107.061 146 134z"/>
<path style="fill:#434243; stroke:none;" d="M179 118L179 119L184 119L179 118M165.667 119.333L166.333 119.667L165.667 119.333M186 119L186 120L189 120L186 119M162.667 120.333L163.333 120.667L162.667 120.333M191 120L191 121L194 121L191 120M158 121L158 122L162 122L158 121z"/>
<path style="fill:#cf9e87; stroke:none;" d="M206 258C200.394 251.857 195.641 245.944 203 239C201.571 249.265 214.285 256.841 222.566 249.297C225.628 246.508 224.998 241.744 225 238L226 238C230.732 249.539 226.927 250.64 221 260C231.374 261.311 244.199 258.998 253.91 263.394C261.469 266.816 266.252 279.454 275.996 274.543C284.588 270.213 290.158 258.054 291.714 249C295.623 226.254 291.128 201.148 292.884 178C293.48 170.144 299.16 150.751 294.397 144.301C289.441 137.592 275.841 130.731 268 128.224C255.41 124.199 239.141 127.536 226 126.961C205.836 126.078 182.754 117.037 163 123.221C154.423 125.905 145.505 132.034 142.8 141C139.922 150.543 142.587 162.124 141.91 172C141.162 182.935 140.398 194.168 138.725 205C135.893 223.347 128.702 247.464 144.329 262.725C147.127 265.458 152.017 267.757 156 267.011C162.89 265.72 166.897 258.162 174 257.144C184.757 255.603 195.363 261.144 206 258z"/>
<path style="fill:#434243; stroke:none;" d="M196 121L196 122L200 122L196 121M157 122L158 123L157 122M202 122L202 123L206 123L202 122M156 123L157 124L156 123M209 123L209 124L215 124L209 123M155 124L156 125L155 124M217 124L217 125L228 125L217 124M257 124L257 125L266 125L257 124M153.667 125.333L154.333 125.667L153.667 125.333z"/>
<path style="fill:#ebc8b9; stroke:none;" d="M194 125.662C183.814 127.887 178.944 140.993 185.394 148.96C193.468 158.931 213.025 169.25 226 166.482C239.625 163.575 271.805 145.645 249.907 131.148C245.663 128.339 240.784 129.285 236 128.83C223.748 127.664 205.996 123.042 194 125.662z"/>
<path style="fill:#434243; stroke:none;" d="M268 125L268 126L272 126L268 125M152 126L153 127L152 126M273 126L273 127L276 127L273 126M151 127L152 128L151 127M277 127L277 128L280 128L277 127M150 128L151 129L150 128M281 128L282 129L281 128M149 129L150 130L149 129M282.667 129.333L283.333 129.667L282.667 129.333M148 130L149 131L148 130M284.667 130.333L285.333 130.667L284.667 130.333M147 131L148 132L147 131M286 131L287 132L286 131M287 132L288 133L287 132M288 133L289 134L288 133M138 134C131.869 141.227 133 150.048 133 159L134 159C134.973 151.813 142.748 140.367 138 134M145 134L146 135L145 134M289 134L290 135L289 134z"/>
<path style="fill:#936652; stroke:none;" d="M145 135L146 136L145 135z"/>
<path style="fill:#434243; stroke:none;" d="M290 135L291 136L290 135z"/>
<path style="fill:#936652; stroke:none;" d="M144 136L145 137L144 136z"/>
<path style="fill:#434243; stroke:none;" d="M291 136L292 137L291 136M292 137L293 138L292 137z"/>
<path style="fill:#936652; stroke:none;" d="M143 138L144 139L143 138z"/>
<path style="fill:#434243; stroke:none;" d="M293.333 138.667L293.667 139.333L293.333 138.667M294 140L295 141L294 140M295 141L296 142L295 141M296 143L297 144L296 143M297 145L298 146L297 145M139 148L140 149L139 148M298 148L299 149L298 148M299 151L300 152L299 151M300.333 154.667L300.667 155.333L300.333 154.667M137 155L138 156L137 155M301 159L301 162L302 162L301 159z"/>
<path style="fill:#936652; stroke:none;" d="M164 161L164 162L175 162L164 161M161 162L162 163L161 162z"/>
<path style="fill:#434243; stroke:none;" d="M152 172L167 168.18L189.852 170.397L193 165C181.492 162.626 156.569 156.067 152 172z"/>
<path style="fill:#936652; stroke:none;" d="M178 162L178 163L183 163L178 162z"/>
<path style="fill:#434243; stroke:none;" d="M135 163L136 164L135 163z"/>
<path style="fill:#936652; stroke:none;" d="M158.667 163.333L159.333 163.667L158.667 163.333M186.667 163.333L187.333 163.667L186.667 163.333M157 164L158 165L157 164M190.667 164.333L191.333 164.667L190.667 164.333M156 165L157 166L156 165z"/>
<path style="fill:#434243; stroke:none;" d="M134 166L135 167L134 166z"/>
<path style="fill:#936652; stroke:none;" d="M154 166L155 167L154 166M193 166L193 170L194 170L193 166M257 166L257 167L275 167L257 166M153 167L154 168L153 167M250 167L250 168L253 168L250 167z"/>
<path style="fill:#434243; stroke:none;" d="M287 180C285.035 165.301 269.24 166.739 258 167.015C255.724 167.071 245.694 167.343 247.346 171.741C248.713 175.38 255.296 173.604 258 173.285C269.765 171.898 276.99 174.304 287 180z"/>
<path style="fill:#936652; stroke:none;" d="M276.667 167.333L277.333 167.667L276.667 167.333M152 168L153 169L152 168M163 168L163 169L171 169L163 168M247 168L248 169L247 168M279 168L280 169L279 168z"/>
<path style="fill:#434243; stroke:none;" d="M302 168L302 172L303 172L302 168z"/>
<path style="fill:#936652; stroke:none;" d="M151 169L150 172L155 173L155 172L151 169M159.667 169.333L160.333 169.667L159.667 169.333M176 169L176 170L180 170L176 169M246 169L247 170L246 169M281 169L282 170L281 169M158 170L159 171L158 170M182 170L182 171L193 171L182 170M245 170C246.205 175.52 250.081 174.996 255 175L255 174L245 170M282 170L283 171L282 170M155.667 171.333L156.333 171.667L155.667 171.333M283 171L284 172L283 171M284 172L285 173L284 172z"/>
<path style="fill:#434243; stroke:none;" d="M132.333 173.667L132.667 174.333L132.333 173.667z"/>
<path style="fill:#936652; stroke:none;" d="M256 173L256 174L263 174L256 173M270 173L270 174L276 174L270 173M285 173L287 176L285 173M277.667 174.333L278.333 174.667L277.667 174.333M279 175L282 177L279 175z"/>
<path style="fill:#434243; stroke:none;" d="M131 176L131 179L132 179L131 176z"/>
<path style="fill:#936652; stroke:none;" d="M287 176L287 180L283 178L289 181L287 176M282 177L283 178L282 177z"/>
<path style="fill:#434243; stroke:none;" d="M303 178L303 182L304 182L303 178M130 180L130 183L131 183L130 180M129 184L129 195L130 195L129 184M304 186L304 190L305 190L304 186z"/>
<path style="fill:#936652; stroke:none;" d="M163 192L163 193L173 193L163 192M148 197L149 200L153 199L151 197L161 194L148 197z"/>
<path style="fill:#434243; stroke:none;" d="M161 193L161 194L167 194L161 193z"/>
<path style="fill:#040404; stroke:none;" d="M156 196L156 197C164.986 196.926 176.562 194.503 184 201C188.844 201.888 191.817 205.802 194 210C196.761 193.01 165.76 191.881 156 196z"/>
<path style="fill:#434243; stroke:none;" d="M173.667 193.333L174.333 193.667L173.667 193.333z"/>
<path style="fill:#936652; stroke:none;" d="M175 193L175 194L181 195L175 193z"/>
<path style="fill:#434243; stroke:none;" d="M158.667 194.333L159.333 194.667L158.667 194.333M178 194L179 195L178 194M151 197L151 198L157 195L151 197M180.667 195.333L181.333 195.667L180.667 195.333z"/>
<path style="fill:#936652; stroke:none;" d="M182 195L182 196C192.791 200.747 194.864 208.319 196 219L197 219C200.744 214.921 202.659 212.674 201 207L199 207L198 210C193.988 203.23 189.877 197.34 182 195z"/>
<path style="fill:#434243; stroke:none;" d="M163 196C161.819 203.642 154.399 211.44 166 214C164.922 210.362 163.25 203.718 166.603 200.689C171.787 196.005 181.929 201.786 182.392 208.001C182.632 211.228 180.428 214.27 179 217L184 206L185 206L187 213L188 213L186 200L184 201C180.092 195.843 169.03 196.05 163 196M183 196L184 197L183 196M305 196L305 200L306 200L305 196z"/>
<path style="fill:#040404; stroke:none;" d="M153.667 197.333L154.333 197.667L153.667 197.333z"/>
<path style="fill:#936652; stroke:none;" d="M156 197L157 198L156 197z"/>
<path style="fill:#cf9e87; stroke:none;" d="M157.667 197.333L158.333 197.667L157.667 197.333z"/>
<path style="fill:#ebc8b9; stroke:none;" d="M149 203L150 205L152 205C152.731 214.138 157.984 222.256 158 232C158.006 235.561 156.956 241.47 159.742 244.258C161.948 246.465 166.137 246.109 169 246.615C175.894 247.834 182.881 249.077 188.891 244.351C197.67 237.448 192.348 225.51 184 222L184 221C197.997 221.987 197.867 210.744 188 203C190.565 217.461 183.916 219.914 172 216.424C168.106 215.284 160.179 214.368 158.697 209.867C157.321 205.69 161.169 200.495 163 197C157.238 197.455 152.326 197.887 149 203z"/>
<path style="fill:#cf9e87; stroke:none;" d="M163 197L164 198L163 197z"/>
<path style="fill:#434243; stroke:none;" d="M185 197L186 198L185 197z"/>
<path style="fill:#ebc8b9; stroke:none;" d="M117 200L120 199L117 200z"/>
<path style="fill:#cf9e87; stroke:none;" d="M115 203L123 211C125.777 204.381 120.713 194.021 115 203z"/>
<path style="fill:#434243; stroke:none;" d="M150 198L151 199L150 198z"/>
<path style="fill:#cf9e87; stroke:none;" d="M162 198L163 199L162 198z"/>
<path style="fill:#434243; stroke:none;" d="M186.667 198.333L187.333 198.667L186.667 198.333z"/>
<path style="fill:#936652; stroke:none;" d="M234 198C229.908 205.198 225.054 217.871 235 222C237.13 211.055 243.387 202.747 255 201L255 200L238 205L236 198L234 198M122 199L124 208L125 208L122 199z"/>
<path style="fill:#cf9e87; stroke:none;" d="M161 199L162 200L161 199z"/>
<path style="fill:#936652; stroke:none;" d="M166 199L165 201L166 199z"/>
<path style="fill:#ebc8b9; stroke:none;" d="M167.279 200.255C164.431 201.687 166.636 206.294 169.411 204.677C171.845 203.258 170.01 198.883 167.279 200.255z"/>
<path style="fill:#cf9e87; stroke:none;" d="M169 199L170 200L169 199z"/>
<path style="fill:#040404; stroke:none;" d="M171 200C170.818 204.148 169.073 205.347 165 205C163.528 212.68 173.859 221.721 180.347 214.681C186.885 207.588 179.326 197.972 171 200z"/>
<path style="fill:#434243; stroke:none;" d="M188 199L189 200L188 199z"/>
<path style="fill:#936652; stroke:none;" d="M256 199L256 200L264 200L256 199z"/>
<path style="fill:#434243; stroke:none;" d="M128 200L128 210L129 210L128 200z"/>
<path style="fill:#936652; stroke:none;" d="M161 200L162 201L161 200z"/>
<path style="fill:#434243; stroke:none;" d="M189 200L190 201L189 200M255 200L255 201L262 201L255 200z"/>
<path style="fill:#040404; stroke:none;" d="M239 211L250 206C257.736 200.139 271.438 205.741 280 207C269.341 197.031 247.022 198.341 239 211z"/>
<path style="fill:#434243; stroke:none;" d="M264 200L264 201L267 201L264 200z"/>
<path style="fill:#936652; stroke:none;" d="M267 200L267 201L270 201L267 200z"/>
<path style="fill:#cf9e87; stroke:none;" d="M160 201L161 202L160 201z"/>
<path style="fill:#936652; stroke:none;" d="M171 201L172 202L171 201z"/>
<path style="fill:#434243; stroke:none;" d="M190 201L191 202L190 201M251 201L252 202L251 201M268 201L268 202L272 202L268 201z"/>
<path style="fill:#936652; stroke:none;" d="M272 201L272 202C276.788 203.994 281.441 205.734 283 211L284 211L286 207L272 201M160 202L161 203L160 202z"/>
<path style="fill:#cf9e87; stroke:none;" d="M171 202L172 203L171 202z"/>
<path style="fill:#936652; stroke:none;" d="M187 202L187 206L188 206L187 202z"/>
<path style="fill:#434243; stroke:none;" d="M188 202L189 203L188 202M191 202L192 203L191 202M248.667 202.333L249.333 202.667L248.667 202.333M273 202L274 203L273 202z"/>
<path style="fill:#cf9e87; stroke:none;" d="M114 203L114 206L115 206L114 203z"/>
<path style="fill:#936652; stroke:none;" d="M159.333 203.667L159.667 204.333L159.333 203.667M171 203L172 204L171 203M189 203L190 204L189 203z"/>
<path style="fill:#434243; stroke:none;" d="M246.667 203.333L247.333 203.667L246.667 203.333M275 203L276 204L275 203M304 203L304 210L305 210L304 203z"/>
<path style="fill:#936652; stroke:none;" d="M165 204L166 205L165 204M183 204L184 205L183 204M190 204L191 205L190 204z"/>
<path style="fill:#434243; stroke:none;" d="M245 204L246 205L245 204M250 206L248 205L247 210C241.552 214.76 245.541 224.567 253 223C251.856 220.749 250.53 218.517 250.085 215.998C247.883 203.536 263.883 202.793 267.214 213.004C268.27 216.243 266.403 219.205 265 222L269 212L270 212L272 220C277.511 206.867 258.173 196.647 250 206M277 204L278 205L277 204M166 205L167 206L166 205z"/>
<path style="fill:#cf9e87; stroke:none;" d="M169 205L170 206L169 205M188 205L188 211L189 211L188 205z"/>
<path style="fill:#936652; stroke:none;" d="M191 205L192 206L191 205z"/>
<path style="fill:#434243; stroke:none;" d="M193 205L194 206L193 205M243 205L244 206L243 205z"/>
<path style="fill:#936652; stroke:none;" d="M253 205L254 206L253 205M270 205L272 208L270 205z"/>
<path style="fill:#cf9e87; stroke:none;" d="M271.333 205.667L271.667 206.333L271.333 205.667z"/>
<path style="fill:#936652; stroke:none;" d="M272 205L273 206L272 205z"/>
<path style="fill:#434243; stroke:none;" d="M273 205L274 206L273 205M278.667 205.333L279.333 205.667L278.667 205.333z"/>
<path style="fill:#cf9e87; stroke:none;" d="M158 206L158 212L159 212L158 206z"/>
<path style="fill:#936652; stroke:none;" d="M184 206L178 217L178 218L183 217L182 220C187.803 216.453 187.946 211.227 184 206z"/>
<path style="fill:#434243; stroke:none;" d="M192 206L193 207L192 206M194.333 206.667L194.667 207.333L194.333 206.667M242 206L243 207L242 206z"/>
<path style="fill:#936652; stroke:none;" d="M246.333 206.667L246.667 207.333L246.333 206.667z"/>
<path style="fill:#cf9e87; stroke:none;" d="M251 206L252 207L251 206z"/>
<path style="fill:#ebc8b9; stroke:none;" d="M252.303 207.171C249.57 208.663 251.91 212.808 254.421 210.918C256.46 209.384 254.75 205.836 252.303 207.171z"/>
<path style="fill:#cf9e87; stroke:none;" d="M255 206L256 207L255 206z"/>
<path style="fill:#040404; stroke:none;" d="M256 206C256.411 210.624 254.446 212.293 250 211C249.716 213.027 249.375 214.97 249.894 217C253.877 232.614 279.569 213.814 261.989 206.742C260.086 205.977 258.007 206.049 256 206z"/>
<path style="fill:#ebc8b9; stroke:none;" d="M272 206C272.888 209.884 275.525 215.844 272.972 219.566C270.214 223.589 249.95 226.149 246.653 222.667C242.858 218.661 244.391 212.821 245 208C239.418 211.173 236.465 216.887 235 223L244 227C233.67 231.696 236.21 246.67 246 250.772C249.793 252.361 262.901 254.072 265.821 250.397C269.522 245.738 269.64 233.957 272.285 228C274.53 222.943 280.078 219.171 281 214L284 213C281.301 208.333 277.189 206.778 272 206z"/>
<path style="fill:#cf9e87; stroke:none;" d="M275 206L276 207L275 206z"/>
<path style="fill:#936652; stroke:none;" d="M276 206L277 207L276 206z"/>
<path style="fill:#434243; stroke:none;" d="M280 206L283 209L280 206z"/>
<path style="fill:#cf9e87; stroke:none;" d="M192 207L193 208L192 207z"/>
<path style="fill:#936652; stroke:none;" d="M244 207L245 208L244 207z"/>
<path style="fill:#cf9e87; stroke:none;" d="M245.333 207.667L245.667 208.333L245.333 207.667z"/>
<path style="fill:#936652; stroke:none;" d="M250 207L251 208L250 207z"/>
<path style="fill:#434243; stroke:none;" d="M256 207L257 208L256 207z"/>
<path style="fill:#cf9e87; stroke:none;" d="M278 207L279 208L278 207z"/>
<path style="fill:#936652; stroke:none;" d="M279 207L280 208L279 207z"/>
<path style="fill:#cf9e87; stroke:none;" d="M113 208C113.086 218.379 114.288 231.312 123 238L119.278 213.028L113 208z"/>
<path style="fill:#434243; stroke:none;" d="M124 208L124 218L125 218L124 208M193 208L194 209L193 208M240 208L241 209L240 208M242 208L243 209L242 208z"/>
<path style="fill:#cf9e87; stroke:none;" d="M243 208L244 209L243 208M256.333 208.667L256.667 209.333L256.333 208.667M272 208L273 209L272 208M280.667 208.333L281.333 208.667L280.667 208.333M154 209L155 210L154 209M193 209L194 210L193 209z"/>
<path style="fill:#434243; stroke:none;" d="M195 209L195 213L196 213L195 209z"/>
<path style="fill:#ebc8b9; stroke:none;" d="M215 209L209 227C223.022 228.772 221.766 220.278 217 209L215 209z"/>
<path style="fill:#434243; stroke:none;" d="M239 209L240 210L239 209M241 209L242 210L241 209z"/>
<path style="fill:#936652; stroke:none;" d="M245 209L246 210L245 209z"/>
<path style="fill:#040404; stroke:none;" d="M246 209L247 210L246 209z"/>
<path style="fill:#936652; stroke:none;" d="M272 209L273 210L272 209z"/>
<path style="fill:#cf9e87; stroke:none;" d="M282 209L283 210L282 209M156 210L157 211L156 210z"/>
<path style="fill:#936652; stroke:none;" d="M194 210L195 211L194 210z"/>
<path style="fill:#434243; stroke:none;" d="M237 213L241 211L237 213z"/>
<path style="fill:#cf9e87; stroke:none;" d="M250 210L251 211L250 210z"/>
<path style="fill:#434243; stroke:none;" d="M256 210L257 211L256 210z"/>
<path style="fill:#cf9e87; stroke:none;" d="M194 211L195 212L194 211M240 211L241 212L240 211M244.333 211.667L244.667 212.333L244.333 211.667M255 211L256 212L255 211M273 211L274 212L273 211M159 212L160 213L159 212z"/>
<path style="fill:#040404; stroke:none;" d="M238 212L237 214L238 212z"/>
<path style="fill:#cf9e87; stroke:none;" d="M239 212L240 213L239 212z"/>
<path style="fill:#434243; stroke:none;" d="M253 212L254 213L253 212z"/>
<path style="fill:#936652; stroke:none;" d="M269 212L266 222L273 221L269 212M273 212L273 218L274 218L273 212z"/>
<path style="fill:#cf9e87; stroke:none;" d="M282 212L283 213L282 212z"/>
<path style="fill:#434243; stroke:none;" d="M127 213L127 218L128 218L127 213z"/>
<path style="fill:#936652; stroke:none;" d="M162.667 213.333L163.333 213.667L162.667 213.333M238 213L239 214L238 213M244 213L244 219L245 219L244 213z"/>
<path style="fill:#434243; stroke:none;" d="M303 213L303 221L304 221L303 213M307 215L310 214L307 215z"/>
<path style="fill:#936652; stroke:none;" d="M307 221L308 221L312 214L311 213C307.599 215.085 307.127 217.098 307 221z"/>
<path style="fill:#cf9e87; stroke:none;" d="M311 213L307 224L316 217L311 213z"/>
<path style="fill:#936652; stroke:none;" d="M165.667 214.333L166.333 214.667L165.667 214.333z"/>
<path style="fill:#cf9e87; stroke:none;" d="M187 214L188 215L187 214z"/>
<path style="fill:#434243; stroke:none;" d="M236 214L236 217L237 217L238 214L236 214z"/>
<path style="fill:#cf9e87; stroke:none;" d="M238 214L239 215L238 214M168 215L169 216L168 215z"/>
<path style="fill:#936652; stroke:none;" d="M169 215L170 216L169 215z"/>
<path style="fill:#434243; stroke:none;" d="M170 215L171 216L170 215z"/>
<path style="fill:#cf9e87; stroke:none;" d="M237 215L238 216L237 215z"/>
<path style="fill:#936652; stroke:none;" d="M172.667 216.333L173.333 216.667L172.667 216.333z"/>
<path style="fill:#cf9e87; stroke:none;" d="M186 216L187 217L186 216M175 217L176 218L175 217z"/>
<path style="fill:#936652; stroke:none;" d="M176 217L177 218L176 217z"/>
<path style="fill:#434243; stroke:none;" d="M177 217L178 218L177 217z"/>
<path style="fill:#cf9e87; stroke:none;" d="M178 218L178 219L183 217L178 218M185.333 217.667L185.667 218.333L185.333 217.667M236 217L237 218L236 217z"/>
<path style="fill:#936652; stroke:none;" d="M306 223L300 256L301 256L312 243L303 251C305.74 244.117 308.839 227.795 317 227L316 217L306 223z"/>
<path style="fill:#cf9e87; stroke:none;" d="M273 218L273 221L274 221L273 218z"/>
<path style="fill:#ebc8b9; stroke:none;" d="M316 218L317 219L316 218z"/>
<path style="fill:#936652; stroke:none;" d="M114 219L115 220L114 219z"/>
<path style="fill:#434243; stroke:none;" d="M125 219L125 221L127 221L127 219L125 219z"/>
<path style="fill:#cf9e87; stroke:none;" d="M183 219L183 221L185 219L183 219M235.333 219.667L235.667 220.333L235.333 219.667M244 219L245 220L244 219M316 219L317 220L316 219z"/>
<path style="fill:#434243; stroke:none;" d="M306 220L306 223L307 223L306 220z"/>
<path style="fill:#cf9e87; stroke:none;" d="M245 221L246 222L245 221M269 221L269 222L272 222L269 221z"/>
<path style="fill:#936652; stroke:none;" d="M246 222L247 223L246 222M250 222L251 223L250 222z"/>
<path style="fill:#434243; stroke:none;" d="M258 222L258 223L261 223L258 222z"/>
<path style="fill:#936652; stroke:none;" d="M261.667 222.333L262.333 222.667L261.667 222.333z"/>
<path style="fill:#cf9e87; stroke:none;" d="M263.667 222.333L264.333 222.667L263.667 222.333M246 223L247 224L246 223z"/>
<path style="fill:#936652; stroke:none;" d="M251 223L251 224L255 224L251 223z"/>
<path style="fill:#cf9e87; stroke:none;" d="M255.667 223.333L256.333 223.667L255.667 223.333z"/>
<path style="fill:#936652; stroke:none;" d="M247.667 224.333L248.333 224.667L247.667 224.333z"/>
<path style="fill:#cf9e87; stroke:none;" d="M249 224L249 225L252 225L249 224z"/>
<path style="fill:#434243; stroke:none;" d="M302 224C302.006 277.446 250.497 339.564 192 320.971C175.431 315.705 162.212 301.934 151.275 289C142.597 278.738 134.092 268.359 131 255L130 255C133.879 299.425 193.919 339.497 236.09 323.769C278.224 308.053 297.249 273.726 305 232L302 224z"/>
<path style="fill:#cf9e87; stroke:none;" d="M316.333 224.667L316.667 225.333L316.333 224.667z"/>
<path style="fill:#936652; stroke:none;" d="M115 225L116 226L115 225z"/>
<path style="fill:#cf9e87; stroke:none;" d="M245.667 225.333L246.333 225.667L245.667 225.333M303 251C312.65 247.406 313.499 235.31 317 227C308.984 226.312 304.934 244.332 303 251z"/>
<path style="fill:#434243; stroke:none;" d="M305 228L305 231L306 231L305 228z"/>
<path style="fill:#936652; stroke:none;" d="M315 229L316 230L315 229M315 231L316 232L315 231z"/>
<path style="fill:#cf9e87; stroke:none;" d="M117 233L118 234L117 233z"/>
<path style="fill:#434243; stroke:none;" d="M125 233L125 238L126 238L125 233z"/>
<path style="fill:#936652; stroke:none;" d="M314 234L315 235L314 234z"/>
<path style="fill:#cf9e87; stroke:none;" d="M118 235L119 236L118 235z"/>
<path style="fill:#936652; stroke:none;" d="M313 237L314 238L313 237z"/>
<path style="fill:#434243; stroke:none;" d="M126 238L127 247L128 247L126 238z"/>
<path style="fill:#936652; stroke:none;" d="M225 238C224.951 255.247 202.401 255.812 203 239C190.137 241.573 205.402 257.39 205 259L210 261L215 260L214 263L215 263C221.274 255.24 237.657 250.633 225 238z"/>
<path style="fill:#ebc8b9; stroke:none;" d="M211.153 239.758C205.551 242.127 211.697 247.724 215.937 246.214C222.417 243.905 215.967 237.722 211.153 239.758z"/>
<path style="fill:#936652; stroke:none;" d="M312 240L313 241L312 240z"/>
<path style="fill:#cf9e87; stroke:none;" d="M125 242L126 243L125 242z"/>
<path style="fill:#936652; stroke:none;" d="M126.333 244.667L126.667 245.333L126.333 244.667z"/>
<path style="fill:#cf9e87; stroke:none;" d="M126 246L127 247L126 246z"/>
<path style="fill:#434243; stroke:none;" d="M128 247L128 251L129 251L128 247z"/>
<path style="fill:#cf9e87; stroke:none;" d="M308 248L309 249L308 248M127 249L128 250L127 249z"/>
<path style="fill:#434243; stroke:none;" d="M129 251L129 255L130 255L129 251z"/>
<path style="fill:#cf9e87; stroke:none;" d="M128.333 252.667L128.667 253.333L128.333 252.667M301.667 254.333L302.333 254.667L301.667 254.333M129 257L130 258L129 257z"/>
<path style="fill:#434243; stroke:none;" d="M169 259L169 260L188 260L188 261L186 261L186 262C189.421 261.43 195.947 259.214 195 263C198.327 262.446 202.899 260.405 202 264L211 262C207.713 257.442 202.888 259.661 198 259.66C188.389 259.66 178.105 254.618 169 259z"/>
<path style="fill:#936652; stroke:none;" d="M180 257L180 258L186 258L180 257M299.333 257.667L299.667 258.333L299.333 257.667M187 258L187 259L192 259L187 258M130 259L131 260L130 259M195 259L195 260L201 260L195 259z"/>
<path style="fill:#434243; stroke:none;" d="M215 263L247 264L247 265L244 265L244 266L252 265L252 266L249 266L249 267L257 266C249.414 258.802 236.441 263.204 227 261.536C222.344 260.714 217.832 258.13 215 263z"/>
<path style="fill:#cf9e87; stroke:none;" d="M130.333 260.667L130.667 261.333L130.333 260.667z"/>
<path style="fill:#040404; stroke:none;" d="M170 260L170 261L188 261L170 260z"/>
<path style="fill:#cf9e87; stroke:none;" d="M211 260C206.366 268.625 190.159 260.611 182 263L182 264L212 268.7L243 268L243 267C236.202 264.986 215.909 268.248 215 260L211 260z"/>
<path style="fill:#936652; stroke:none;" d="M222 260L222 261L225 261L222 260M298 260L299 261L298 260z"/>
<path style="fill:#040404; stroke:none;" d="M188 261L188 262L196 262L188 261z"/>
<path style="fill:#936652; stroke:none;" d="M226 261L226 262L246 262L226 261M131 262L132 263L131 262M190 262L190 263L195 263L190 262z"/>
<path style="fill:#040404; stroke:none;" d="M197 262L197 263L203 263L197 262M209 262L203 263L203 264L209 262z"/>
<path style="fill:#936652; stroke:none;" d="M210 262L211 263L210 262M250.667 262.333L251.333 262.667L250.667 262.333M297.333 262.667L297.667 263.333L297.333 262.667z"/>
<path style="fill:#cf9e87; stroke:none;" d="M131.333 263.667L131.667 264.333L131.333 263.667z"/>
<path style="fill:#936652; stroke:none;" d="M200.667 263.333L201.333 263.667L200.667 263.333z"/>
<path style="fill:#040404; stroke:none;" d="M215 263L215 264L247 265L215 263z"/>
<path style="fill:#936652; stroke:none;" d="M254.667 263.333L255.333 263.667L254.667 263.333M206.667 264.333L207.333 264.667L206.667 264.333M215 264L216 265L215 264M256 264L257 265L256 264M132 265L133 266L132 265z"/>
<path style="fill:#434243; stroke:none;" d="M176 266L177 269L186 271L192 269L176 266z"/>
<path style="fill:#040404; stroke:none;" d="M247 265L247 266L252 266L247 265z"/>
<path style="fill:#936652; stroke:none;" d="M296 265L297 266L296 265z"/>
<path style="fill:#cf9e87; stroke:none;" d="M132 266L133 267L132 266z"/>
<path style="fill:#040404; stroke:none;" d="M252 266L252 267L256 267L252 266z"/>
<path style="fill:#936652; stroke:none;" d="M133.333 267.667L133.667 268.333L133.333 267.667z"/>
<path style="fill:#040404; stroke:none;" d="M178 267C178.871 276.903 186.669 285.185 195 290L190 281L213 283.522L232 285L222 294L222 295C229.835 293.603 237.288 289.135 241 282C245.815 281.083 246.956 276.392 248 272C239.553 272.438 231.707 276.414 223 276.907C206.863 277.82 192.618 272.5 178 267z"/>
<path style="fill:#936652; stroke:none;" d="M295.333 267.667L295.667 268.333L295.333 267.667z"/>
<path style="fill:#cf9e87; stroke:none;" d="M182 285C188.135 289.996 193.75 296.684 201 300.081C216.767 307.468 233.329 297.241 245 287L237 305C248.332 302.947 263.802 288.233 261 276L250 274C244.099 284.599 235.122 294.767 223 298.211C203.047 303.881 181.343 286.547 176 268C173.024 268.479 163.779 267.699 162.042 269.782C160.082 272.134 162.094 276.642 163.069 279C166.444 287.168 172.787 295.234 180 300.362C182.01 301.791 191.125 306.763 192.093 301.682C193.008 296.885 183.97 289.479 182 285M133 269L134 270L133 269z"/>
<path style="fill:#434243; stroke:none;" d="M195 269L195 270L198 270L195 269z"/>
<path style="fill:#936652; stroke:none;" d="M134 270L135 271L134 270z"/>
<path style="fill:#434243; stroke:none;" d="M203 270L203 271L206 271L203 270M214 271L214 272C219.958 272 232.449 269.523 236 275L249 273C244.706 266.922 221.52 271 214 271z"/>
<path style="fill:#936652; stroke:none;" d="M294 270L295 271L294 270z"/>
<path style="fill:#cf9e87; stroke:none;" d="M134 271L135 272L134 271z"/>
<path style="fill:#434243; stroke:none;" d="M178 271L179 272L178 271M187.667 271.333L188.333 271.667L187.667 271.333z"/>
<path style="fill:#cf9e87; stroke:none;" d="M195 272L195 273L223 275C215.427 271.599 203.068 269.696 195 272M294 271L295 272L294 271z"/>
<path style="fill:#936652; stroke:none;" d="M135 272L136 273L135 272z"/>
<path style="fill:#434243; stroke:none;" d="M190.667 272.333L191.333 272.667L190.667 272.333z"/>
<path style="fill:#936652; stroke:none;" d="M293.333 272.667L293.667 273.333L293.333 272.667z"/>
<path style="fill:#cf9e87; stroke:none;" d="M135 273L136 274L135 273z"/>
<path style="fill:#434243; stroke:none;" d="M193 273L193 274L197 274L193 273z"/>
<path style="fill:#936652; stroke:none;" d="M197.667 273.333L198.333 273.667L197.667 273.333M136 274L137 275L136 274z"/>
<path style="fill:#434243; stroke:none;" d="M179 274L180 275L179 274M198 274L198 275L203 275L198 274z"/>
<path style="fill:#936652; stroke:none;" d="M203.667 274.333L204.333 274.667L203.667 274.333z"/>
<path style="fill:#434243; stroke:none;" d="M247.333 274.667L247.667 275.333L247.333 274.667z"/>
<path style="fill:#cf9e87; stroke:none;" d="M136 275L137 276L136 275z"/>
<path style="fill:#936652; stroke:none;" d="M179 275C188.041 302.258 234.642 309.313 246 280L245 280C238.76 288.02 228.558 295.401 218 295C218 298.359 212.797 297 210 297L210 296C215.914 294.334 223.929 293.622 226 287L196 285C198.114 290.934 203.351 293.073 209 295L209 296C195.456 293.593 188.414 283.597 179 275z"/>
<path style="fill:#434243; stroke:none;" d="M205 275L205 276L212 276L205 275z"/>
<path style="fill:#936652; stroke:none;" d="M212 275L212 276L221 276L212 275z"/>
<path style="fill:#434243; stroke:none;" d="M230 275L230 276L236 276L230 275z"/>
<path style="fill:#936652; stroke:none;" d="M292 275L293 276L292 275M137 276L138 277L137 276z"/>
<path style="fill:#434243; stroke:none;" d="M216 276L216 277L227 277L216 276z"/>
<path style="fill:#cf9e87; stroke:none;" d="M137 277L138 278L137 277z"/>
<path style="fill:#434243; stroke:none;" d="M181 277L182 278L181 277M246 277L247 278L246 277z"/>
<path style="fill:#936652; stroke:none;" d="M291 277L292 278L291 277M138 278L139 279L138 278z"/>
<path style="fill:#434243; stroke:none;" d="M182 278L183 279L182 278M183.333 279.667L183.667 280.333L183.333 279.667M245 279L246 280L245 279z"/>
<path style="fill:#936652; stroke:none;" d="M290 279L291 280L290 279M139 280L140 281L139 280z"/>
<path style="fill:#434243; stroke:none;" d="M190 281C192.709 290.141 199.386 293.507 208 296L196 285L226 287C223.088 292.604 216.929 294.198 211 295L211 296L222 296L232 285L214 283.391L190 281z"/>
<path style="fill:#936652; stroke:none;" d="M140.333 281.667L140.667 282.333L140.333 281.667z"/>
<path style="fill:#434243; stroke:none;" d="M184 281L185 282L184 281z"/>
<path style="fill:#936652; stroke:none;" d="M289 281L290 282L289 281z"/>
<path style="fill:#434243; stroke:none;" d="M185 282L186 283L185 282M241 282L239 286L243 283L241 282M243 282L244 283L243 282z"/>
<path style="fill:#936652; stroke:none;" d="M288 282L289 283L288 282M141 283L142 284L141 283z"/>
<path style="fill:#434243; stroke:none;" d="M186 283L187 284L186 283z"/>
<path style="fill:#936652; stroke:none;" d="M142 284L143 285L142 284M181 284L182 285L181 284z"/>
<path style="fill:#434243; stroke:none;" d="M187 284L188 285L187 284z"/>
<path style="fill:#936652; stroke:none;" d="M287 284L288 285L287 284z"/>
<path style="fill:#434243; stroke:none;" d="M188 285L189 286L188 285z"/>
<path style="fill:#936652; stroke:none;" d="M286.333 285.667L286.667 286.333L286.333 285.667z"/>
<path style="fill:#cf9e87; stroke:none;" d="M143 286L144 287L143 286z"/>
<path style="fill:#434243; stroke:none;" d="M189 286L190 287L189 286M238 286L239 287L238 286z"/>
<path style="fill:#936652; stroke:none;" d="M245 286L246 287L245 286M144 287L145 288L144 287z"/>
<path style="fill:#434243; stroke:none;" d="M237 287L238 288L237 287z"/>
<path style="fill:#936652; stroke:none;" d="M285 287L286 288L285 287M145 288L146 289L145 288z"/>
<path style="fill:#434243; stroke:none;" d="M192 288L193 289L192 288M236 288L237 289L236 288z"/>
<path style="fill:#936652; stroke:none;" d="M284 288L285 289L284 288M146 289L147 290L146 289z"/>
<path style="fill:#434243; stroke:none;" d="M193 289L194 290L193 289z"/>
<path style="fill:#cf9e87; stroke:none;" d="M208 290L209 291L208 290z"/>
<path style="fill:#434243; stroke:none;" d="M233 290L234 291L233 290z"/>
<path style="fill:#936652; stroke:none;" d="M283 290L284 291L283 290M147 291L148 292L147 291z"/>
<path style="fill:#040404; stroke:none;" d="M197 291L198 292L197 291z"/>
<path style="fill:#434243; stroke:none;" d="M231 291L232 292L231 291z"/>
<path style="fill:#936652; stroke:none;" d="M282 291L283 292L282 291M148 292L149 293L148 292z"/>
<path style="fill:#434243; stroke:none;" d="M229 292L230 293L229 292z"/>
<path style="fill:#936652; stroke:none;" d="M281 292L282 293L281 292M149 293L150 294L149 293z"/>
<path style="fill:#434243; stroke:none;" d="M227 293L228 294L227 293z"/>
<path style="fill:#936652; stroke:none;" d="M280 293L281 294L280 293M150 294L151 295L150 294M279 294L280 295L279 294M151 295L152 296L151 295z"/>
<path style="fill:#cf9e87; stroke:none;" d="M205.667 295.333L206.333 295.667L205.667 295.333M208 295L209 296L208 295z"/>
<path style="fill:#936652; stroke:none;" d="M278 295L279 296L278 295M152 296L153 297L152 296z"/>
<path style="fill:#cf9e87; stroke:none;" d="M210 296L210 297L219 297L210 296z"/>
<path style="fill:#936652; stroke:none;" d="M277 296L278 297L277 296M153 297L154 298L153 297M276 297L277 298L276 297M154 298L155 299L154 298M275 298L276 299L275 298M155 299L156 300L155 299M274 299L275 300L274 299M156 300L157 301L156 300M273 300L274 301L273 300M157 301L158 302L157 301M272 301L273 302L272 301M158 302L159 303L158 302M271 302L272 303L271 302M159 303L160 304L159 303M269.667 303.333L270.333 303.667L269.667 303.333M161 304L162 305L161 304M268 304L269 305L268 304M162 305L163 306L162 305M267 305L268 306L267 305M163 306L164 307L163 306M265.667 306.333L266.333 306.667L265.667 306.333M164 307L165 308L164 307M264 307L265 308L264 307M165 308L166 309L165 308M263 308L264 309L263 308M166 309L167 310L166 309M261.667 309.333L262.333 309.667L261.667 309.333M168 310L169 311L168 310M260 310L261 311L260 310M169 311L170 312L169 311M258.667 311.333L259.333 311.667L258.667 311.333M170 312L171 313L170 312M257 312L258 313L257 312M171.667 313.333L172.333 313.667L171.667 313.333M255.667 313.333L256.333 313.667L255.667 313.333M173 314L174 315L173 314M254 314L255 315L254 314M174 315L175 316L174 315M252 315L253 316L252 315M176 316L177 317L176 316M250.667 316.333L251.333 316.667L250.667 316.333M177.667 317.333L178.333 317.667L177.667 317.333M248.667 317.333L249.333 317.667L248.667 317.333M179 318L180 319L179 318M247 318L248 319L247 318M181 319L182 320L181 319M245 319L246 320L245 319M183 320L184 321L183 320M243 320L244 321L243 320M185.667 321.333L186.333 321.667L185.667 321.333M241 321L242 322L241 321M187.667 322.333L188.333 322.667L187.667 322.333M238.667 322.333L239.333 322.667L238.667 322.333M190.667 323.333L191.333 323.667L190.667 323.333M237 323L238 324L237 323M193 324L193 325L196 325L193 324M232 324L233 325L232 324M234 324L235 325L234 324M197 325L197 326L200 326L197 325M228 325L229 326L228 325M230.667 325.333L231.333 325.667L230.667 325.333M201 326L201 327L205 327L201 326M222 326L222 327L227 327L222 326M208 327L208 328L220 328L208 327z"/>
</svg>
